<svg xmlns="http://www.w3.org/2000/svg" viewBox="0 0 1075.87 172.65"><defs><style>.cls-1{fill:#fff;}</style></defs><g id="Layer_6" data-name="Layer 6"><path class="cls-1" d="M520.18,166.27q4.64,0,4.63,3L522,185.05l-.59,29.37a103,103,0,0,1-4.4,26.52,77.85,77.85,0,0,1-9.64,20.57,67.59,67.59,0,0,1-13.43,15.1A76.29,76.29,0,0,1,478,286.84a77.79,77.79,0,0,1-17,5.7,72.87,72.87,0,0,1-16.53,1.91q-19.38,0-30.38-8.39t-11-16.23q0-4.51,8.15-11.65t12.31-7.13q5.1,0,5.11,9.51,0,15.45,5.05,20t13.5,4.58a36,36,0,0,0,24-8.68A42.6,42.6,0,0,0,485,255.74q3.57-12.06,3.69-35.61t3.5-32.4q3.39-8.86,12.43-15.16T520.18,166.27Zm44.59-36.51q-3.45,25.58-21.76,25.57-6.42,0-24.62-5.77T487,143.79q-17,0-29.43,12.63t-12.42,22q0,9.18,11.41,16.32c3.09,2,4.64,3.77,4.64,5.36q0,3.21-6.6,8.69t-9.93,5.48q-5.6,0-10.46-6.42a22.69,22.69,0,0,1-4.88-14q0-14.74,12-32.16a93.6,93.6,0,0,1,31.39-28.42,81.26,81.26,0,0,1,40.67-11,84.57,84.57,0,0,1,27.23,4.34q12.84,4.33,16,4.34a7.44,7.44,0,0,0,4.88-1.66l.71-.24Z" transform="translate(-403.05 -122.03)"/><path class="cls-1" d="M628.5,265.43q-15.11,14.86-27.11,21.94a51.25,51.25,0,0,1-26.52,7.08q-16.17,0-26.1-10.35t-9.92-27.23q0-25.2,17.47-45.6t38.77-20.39q11.05,0,17.72,5.71a18.79,18.79,0,0,1,6.65,15q0,24.62-52.31,40,4.76,23.19,24.85,23.19a29,29,0,0,0,15-4.22q7.13-4.23,21.52-18.73Zm-62.31-22q30.45-8.56,30.44-31.63,0-11.42-8.32-11.42-7.84,0-15,12T566.19,243.44Z" transform="translate(-403.05 -122.03)"/><path class="cls-1" d="M707.22,265.43q-16.17,14.86-28.36,21.94t-23.25,7.08a24.86,24.86,0,0,1-20.51-9.87q-7.79-9.87-7.79-26.52,0-25,10.82-59.93a383,383,0,0,1,26.28-64.45l30.2-11.17a7.59,7.59,0,0,1,2.14-.48q3.45,0,5.65,5.06t2.2,13.61a105.19,105.19,0,0,1-11.18,47q-11.17,22.71-34.95,48.51c-.64,8.25-1,13.91-1,17q0,10.33,3.8,16.4c2.54,4.05,5.9,6.07,10.11,6.07s8.83-1.55,13.67-4.64,12.21-9.51,22.12-19.26Zm-45.54-46.49a145,145,0,0,0,24.49-37.63q9.39-20.84,9.4-35.84a16.24,16.24,0,0,0-1.31-7.08q-1.32-2.69-3.33-2.68-4.41,0-12.78,21.91T661.68,218.94Z" transform="translate(-403.05 -122.03)"/><path class="cls-1" d="M796.16,265.43q-15.1,14.86-27.11,21.94a51.28,51.28,0,0,1-26.52,7.08q-16.17,0-26.1-10.35t-9.93-27.23q0-25.2,17.48-45.6t38.77-20.39q11.06,0,17.71,5.71a18.77,18.77,0,0,1,6.66,15q0,24.62-52.32,40,4.76,23.19,24.86,23.19a29,29,0,0,0,15-4.22q7.13-4.23,21.52-18.73Zm-62.31-22q30.45-8.56,30.44-31.63,0-11.42-8.32-11.42-7.85,0-15,12T733.85,243.44Z" transform="translate(-403.05 -122.03)"/><path class="cls-1" d="M923.15,265.43q-17.11,17-26.1,23t-15.87,6q-8.45,0-13.38-8.21t-5-24q-9.75,15.82-21.23,24t-20.75,8.21q-10.11,0-17.83-9.58a34.56,34.56,0,0,1-7.73-22.41q0-26.52,19.32-49.17t41.56-22.65c4.12,0,7.35.6,9.69,1.78a30.86,30.86,0,0,1,7.67,6.07l17-71.11q20.84-4.87,28.09-4.87c1.59,0,2.38.63,2.38,1.9q0,1.32-5.94,24.62-23.76,93.23-23.76,112.48a12.52,12.52,0,0,0,1.9,7.25,5.81,5.81,0,0,0,5,2.74q7.59,0,25-19.74Zm-86,6.31q11.66,0,21.76-19.74t10.11-37q0-7-3.15-11.18a9.89,9.89,0,0,0-8.26-4.16q-11.07,0-21.41,20.63t-10.34,37.28q0,6.54,3,10.34A10,10,0,0,0,837.18,271.74Z" transform="translate(-403.05 -122.03)"/><path class="cls-1" d="M1012,265.43q-29.84,29.25-46,29.25-7.26,0-12.25-6.12t-5-15.16q0-16.77,17.95-44.95a66.15,66.15,0,0,1-19.26,6.31q-7.73,14.27-24.26,30.67h-2.73v-10.7A155.49,155.49,0,0,0,937.18,234Q927,229.53,927,220.61q0-9.17,6.24-19.56t17.18-10.41q9.27,0,9.28,9.51,0,7.5-5.35,21.41,19.73-2.15,34.48-30.21l10.82-.47-11.06,30.44q-6.9,19.26-8.92,26.22a44.71,44.71,0,0,0-2,12.3,12.59,12.59,0,0,0,2.32,8,7.52,7.52,0,0,0,6.24,3,13.59,13.59,0,0,0,8.21-2.91Q998.3,265,1012,251.76Z" transform="translate(-403.05 -122.03)"/><path class="cls-1" d="M1139,265.43q-19,18.07-27.23,23.55t-15.7,5.47q-18.78,0-17.71-33.18-11.89,17-21.94,25.09t-20.75,8.09q-10.47,0-17.78-9.81t-7.31-24.08a64.58,64.58,0,0,1,9.81-34,80.62,80.62,0,0,1,25.15-26.16q15.33-10,27.11-10,14.87,0,20.81,13.68l24.3-13.44h6.67l-10.49,34.84q-8.1,26.28-8.1,36,0,10.23,7.25,10.23,4.64,0,10.22-4.94t15.69-15Zm-87,6.54q11.88,0,22.41-20.27t10.52-37.4q0-6.66-3-10.4a9.64,9.64,0,0,0-8-3.75q-11.9,0-22.54,20.22t-10.64,37.22q0,6.42,3.15,10.4A9.79,9.79,0,0,0,1051.93,272Z" transform="translate(-403.05 -122.03)"/><path class="cls-1" d="M1303.77,265.43a37.72,37.72,0,0,1-11.41,6.78,28.77,28.77,0,0,1-8.8,2q-8.68,0-17-6.66-21.65,26.88-44.59,26.88-16.87,0-24.13-18.55-15.94,18.54-34.37,18.55-12,0-18.9-7.91t-6.9-21.82a115.39,115.39,0,0,1,4.22-30.44,394.79,394.79,0,0,1,12.9-37.81l31.35-5.82-8.8,26.51q-11.17,34.47-11.13,47.55a16.32,16.32,0,0,0,3,10.12,9.06,9.06,0,0,0,7.49,3.92q9.51,0,19-14.74a121.05,121.05,0,0,1,6.77-38.77l9.75-28.77,31.85-5.83-13.33,41.14q-6.42,19.85-6.42,31.39,0,7,3.09,11.18a9.76,9.76,0,0,0,8.22,4.16,18.36,18.36,0,0,0,11.9-4.63q5.6-4.65,12.61-14a49.19,49.19,0,0,1-6.3-23.9q0-17.83,8.92-31.57t20.09-13.73q7.74,0,7.73,11.65,0,25.1-19.38,56.84,5.94,5.6,12.6,5.59,8,0,20-13Z" transform="translate(-403.05 -122.03)"/><path class="cls-1" d="M1362.15,265.43q-27.83,29.25-41.61,29.25-7.62,0-12.84-7.78t-5.24-19.56q0-25.33,17.13-70.16l30.2-6.3h1.43l-11.9,37.22Q1332,251.17,1332,261a10.81,10.81,0,0,0,1.73,6.37,5.13,5.13,0,0,0,4.34,2.43,15.9,15.9,0,0,0,9.33-3.39q4.7-3.39,14.8-14.68Zm-2.37-121q0,28.53-21,28.53a26,26,0,0,1-17.48-6.18A86.19,86.19,0,0,0,1332,143.2q9.39,5.82,15.1,5.82Q1353.47,149,1359.78,144.39Z" transform="translate(-403.05 -122.03)"/><path class="cls-1" d="M1478.92,265.43q-27.47,29-47.09,29a16.23,16.23,0,0,1-12.84-5.59q-4.87-5.6-4.87-15,0-12.74,10.46-38.89,5.6-14,5.59-17.83t-3-3.81a9.28,9.28,0,0,0-4.4,1.67,54,54,0,0,0-5.83,4.63q-3,2.74-6.66,6.66-3.21,3.33-6.9,7.61l-6.65,7.73a24.46,24.46,0,0,0-5.47,11.3,178.46,178.46,0,0,0-2.38,18.55q-.36,6.3-.36,17l-26.28,6.18q-1.3-16.05-1.3-23.9a143.46,143.46,0,0,1,4.45-36.26q4.47-17.13,14.33-38.53l29-5.59q-9.16,24.61-12,38.77,19.48-21.76,30.94-30.15t20.35-8.38a12.92,12.92,0,0,1,10.09,4.57,16.65,16.65,0,0,1,4,11.46q0,11.4-10.22,37.56-7,18-7,23.32,0,7.15,5.85,7.16,8.7,0,28.13-22.95Z" transform="translate(-403.05 -122.03)"/></g></svg>